# xmcd CD database file
#
# Track frame offsets:
#	150
#	24615
#	61940
#	103738
#	155078
#	164857
#	214058
#	241705
#	284005
#	320145
#
# Disc length: 4686 seconds
#
# Revision: 0
# Processed by: cddbd v1.5.2PL0 Copyright (c) Steve Scherf et al.
# Submitted via: CDex 1.51
#
DISCID=98124c0a
DTITLE=Thelonious Monk - Misterioso - 5 By Monk 5 - Alone in San Francisco CD1
DYEAR=1958
DGENRE=Jazz
TTITLE0=Nutty
TTITLE1=Blues Five Spot
TTITLE2=Let's Cool One
TTITLE3=In Walked Bud
TTITLE4=Just a Gigolo
TTITLE5=Misterioso
TTITLE6=Jackie-ing
TTITLE7=Straight, No Chaser
TTITLE8=Played Twice (Take 3)
TTITLE9=Played Twice (Take 1)
EXTD=YEAR: 1958
EXTT0=
EXTT1=
EXTT2=
EXTT3=
EXTT4=
EXTT5=
EXTT6=
EXTT7=
EXTT8=
EXTT9=
PLAYORDER=
